<svg xmlns="http://www.w3.org/2000/svg" viewBox="0 0 1288.42 694.76"><defs><style>.cls-1{fill:#fffeff;}.cls-2{fill:#333;}</style></defs><g id="Warstwa_2" data-name="Warstwa 2"><g id="Слой_1" data-name="Слой 1"><path class="cls-1" d="M483.16,639.33c-61.72-1.7-131.27-14.71-175.7-57.59s-57-107.86-31.23-164c33.77-73.57,152-103.56,208.37-45.48C462.66,273.3,523.18,165,673.49,155.2,768,149.06,867.91,232.86,854.07,327c88.82-47.83,158.17-22.63,205,18.54,30.17,26.54,41.85,54,47.83,93.71,13.67,90.77-62.93,171.67-147.44,189-34.6,7.08-73,5.54-108.17,7.22-47.22,2.26-94.52,4.13-141.8,3.94-2.55,0-5.11,0-7.66,0C626.87,638.57,557.7,641.39,483.16,639.33Z"/><path class="cls-2" d="M756.54,217.35c47.62,0,97.44,23.42,130,61.13,26.46,30.62,38.18,66.86,33,102l-2.26,15.38L931,388.52c30.92-16.65,61.25-25.09,90.17-25.09a147.39,147.39,0,0,1,58.58,12.16,179.57,179.57,0,0,1,47.36,30.46c26.78,23.56,39.05,47.68,45.27,89,6,40.12-6.46,81.28-35.2,115.89-27,32.58-65.71,56-106.09,64.28-24.4,5-51.23,5.59-77.18,6.16-9.85.22-20,.44-29.8.91-42.84,2.05-88.81,4-134.75,4H782.7q-3.81,0-7.61-.06c-8.9-.09-18-.13-27.79-.13-22.14,0-44.19.23-65.51.45-21,.22-42.73.45-64.23.45-22.4,0-42.34-.25-61-.76-34.52-1-65.61-5.35-92.39-13.06-32.35-9.31-58.63-23.56-78.1-42.35a135.62,135.62,0,0,1-29.56-155.1c9.62-20.95,26.9-38.95,50-52.06A149.13,149.13,0,0,1,479,404.19c29.59,0,55.6,10,73.26,28.19l19.18,19.76-6-26.89a169.84,169.84,0,0,1-1-70.31,156.63,156.63,0,0,1,28.47-64c15.44-20.56,35.77-37.24,60.42-49.57,26.91-13.45,58.5-21.43,93.89-23.73,3.07-.2,6.21-.3,9.33-.3m0-7.81c-3.28,0-6.57.1-9.84.32C596.38,219.62,535.87,328,557.81,426.94c-20.47-21.08-49.09-30.56-78.86-30.56-52.23,0-108,29.18-129.51,76-25.76,56.12-13.2,121.11,31.23,164s114,55.89,175.69,57.59c20.74.57,41,.77,61.2.77,43.27,0,85.72-.9,129.74-.9q13.74,0,27.71.13c2.55,0,5.1,0,7.65,0l6.68,0c45.06,0,90.13-1.8,135.12-4,35.22-1.68,73.58-.14,108.17-7.22,84.51-17.31,161.11-98.21,147.45-189-6-39.73-17.67-67.17-47.83-93.71-28.76-25.3-66-44.57-111.1-44.57-28.28,0-59.63,7.59-93.88,26C940.63,290.78,848,209.54,756.54,209.54Z"/><path class="cls-2" d="M322.11,275.25a24.4,24.4,0,1,1,24.4-24.4A24.43,24.43,0,0,1,322.11,275.25Zm0-41a16.6,16.6,0,1,0,16.59,16.59A16.61,16.61,0,0,0,322.11,234.26Z"/><path class="cls-2" d="M814.05,48.8a24.4,24.4,0,1,1,24.4-24.4A24.42,24.42,0,0,1,814.05,48.8Zm0-41A16.6,16.6,0,1,0,830.64,24.4,16.61,16.61,0,0,0,814.05,7.81Z"/><path class="cls-2" d="M1034.64,223.52a24.4,24.4,0,1,1,24.4-24.4A24.43,24.43,0,0,1,1034.64,223.52Zm0-41a16.59,16.59,0,1,0,16.6,16.59A16.61,16.61,0,0,0,1034.64,182.53Z"/><path class="cls-2" d="M589.55,88.82c-17.95,0-27.12-11.12-35.22-20.94s-14.94-18.1-29.2-18.1-21.19,8.39-29.2,18.1S478.65,88.82,460.7,88.82,433.58,77.7,425.48,67.88s-14.93-18.1-29.2-18.1-21.18,8.39-29.2,18.1-17.27,20.94-35.22,20.94S304.74,77.7,296.64,67.88s-14.93-18.1-29.19-18.1V42c17.94,0,27.12,11.13,35.22,20.94S317.6,81,331.86,81s21.19-8.38,29.2-18.1S378.34,42,396.28,42,423.41,53.1,431.5,62.91,446.44,81,460.7,81s21.19-8.38,29.2-18.1S507.18,42,525.13,42s27.12,11.13,35.22,20.94S575.29,81,589.55,81Z"/><path class="cls-2" d="M322.11,420.69c-17.95,0-27.13-11.13-35.23-20.94s-14.93-18.1-29.2-18.1-21.19,8.39-29.2,18.1-17.28,20.94-35.22,20.94S166.13,409.56,158,399.75s-14.94-18.1-29.2-18.1-21.19,8.39-29.2,18.1-17.28,20.94-35.22,20.94S37.29,409.56,29.2,399.75,14.26,381.65,0,381.65v-7.81c17.94,0,27.12,11.12,35.22,20.94s14.93,18.1,29.2,18.1,21.18-8.39,29.19-18.1,17.28-20.94,35.23-20.94S156,385,164.06,394.78s14.93,18.1,29.2,18.1,21.18-8.39,29.2-18.1,17.27-20.94,35.22-20.94,27.13,11.12,35.23,20.94,14.93,18.1,29.2,18.1Z"/><path class="cls-2" d="M1288.42,305.51c-17.94,0-27.12-11.12-35.22-20.94s-14.94-18.1-29.2-18.1-21.19,8.39-29.2,18.1-17.28,20.94-35.23,20.94-27.12-11.12-35.22-20.94-14.93-18.1-29.2-18.1-21.18,8.39-29.19,18.1-17.28,20.94-35.23,20.94-27.12-11.12-35.22-20.94-14.93-18.1-29.19-18.1v-7.81c17.94,0,27.12,11.13,35.22,20.94s14.93,18.1,29.19,18.1,21.19-8.38,29.2-18.1,17.28-20.94,35.22-20.94,27.13,11.13,35.23,20.94,14.93,18.1,29.19,18.1,21.19-8.38,29.21-18.1,17.27-20.94,35.22-20.94,27.12,11.13,35.22,20.94,14.94,18.1,29.2,18.1Z"/></g></g></svg>