<svg xmlns="http://www.w3.org/2000/svg" viewBox="0 0 918.68 1113.56"><defs><style>.cls-1{fill:#333;}.cls-2{fill:#3e77e0;}.cls-3{fill:#f8ad3a;}.cls-4{fill:#fffeff;}</style></defs><g id="Warstwa_2" data-name="Warstwa 2"><g id="Слой_1" data-name="Слой 1"><path class="cls-1" d="M132.69,212.79a24.41,24.41,0,1,1,24.41-24.41A24.44,24.44,0,0,1,132.69,212.79Zm0-41a16.6,16.6,0,1,0,16.6,16.59A16.61,16.61,0,0,0,132.69,171.79Z"/><path class="cls-1" d="M478.23,48.8a24.4,24.4,0,1,1,24.4-24.4A24.43,24.43,0,0,1,478.23,48.8Zm0-41A16.6,16.6,0,1,0,494.82,24.4,16.61,16.61,0,0,0,478.23,7.81Z"/><path class="cls-1" d="M761.29,212.79a24.41,24.41,0,1,1,24.4-24.41A24.43,24.43,0,0,1,761.29,212.79Zm0-41a16.6,16.6,0,1,0,16.59,16.59A16.61,16.61,0,0,0,761.29,171.79Z"/><path class="cls-2" d="M271.1,692c-21.07,22.73-49.51,46.71-58.23,77.35-4.47,15.7-1.35,36.47,15.68,43.08,15.34,6,32.68-3.51,39.14-17.89C279.83,767.45,276.05,719.2,271.1,692Z"/><path class="cls-1" d="M218.81,818.11a30.86,30.86,0,0,1-11.2-2.08c-18.69-7.26-23.21-29.54-18-47.79,7.34-25.78,28.19-47.09,46.59-65.89,4.41-4.51,8.57-8.77,12.54-13l5.3-5.73,1.4,7.68c5.77,31.72,8.26,78.21-3.69,104.84C245.63,809.68,232.24,818.11,218.81,818.11ZM249,700.36c-2.35,2.44-4.76,4.9-7.25,7.45-18.61,19-37.86,38.7-44.66,62.57-4.23,14.85-1,32.8,13.34,38.37,13.78,5.36,28.79-3.87,34.16-15.85C255.46,768.73,252.91,726.46,249,700.36Z"/><path class="cls-2" d="M700.57,692c-21.06,22.73-49.5,46.71-58.23,77.35C637.87,785,641,805.78,658,812.39c15.35,6,32.69-3.51,39.14-17.89C709.3,767.45,705.53,719.2,700.57,692Z"/><path class="cls-1" d="M648.29,818.11a30.82,30.82,0,0,1-11.2-2.08c-18.7-7.26-23.22-29.54-18-47.79,7.34-25.78,28.19-47.09,46.58-65.89,4.41-4.51,8.58-8.77,12.54-13l5.31-5.73,1.39,7.68c5.77,31.72,8.26,78.21-3.69,104.84C675.11,809.68,661.72,818.11,648.29,818.11Zm30.19-117.75c-2.35,2.44-4.76,4.9-7.25,7.45-18.61,19-37.86,38.7-44.65,62.57-4.23,14.85-1,32.8,13.33,38.37,13.78,5.36,28.79-3.87,34.17-15.85C684.93,768.73,682.38,726.46,678.48,700.36Z"/><path class="cls-2" d="M290.62,951.6c-21.07,22.73-49.5,46.71-58.23,77.35-4.47,15.7-1.35,36.47,15.68,43.08,15.35,6,32.69-3.51,39.14-17.89C299.35,1027.09,295.57,978.83,290.62,951.6Z"/><path class="cls-1" d="M238.33,1077.75a30.86,30.86,0,0,1-11.2-2.08c-18.69-7.26-23.21-29.54-18-47.79,7.35-25.78,28.19-47.09,46.59-65.9,4.41-4.5,8.57-8.76,12.54-13l5.31-5.72,1.39,7.68c5.77,31.72,8.26,78.21-3.69,104.84C265.15,1069.32,251.77,1077.75,238.33,1077.75ZM268.53,960c-2.35,2.45-4.76,4.91-7.25,7.45-18.61,19-37.86,38.71-44.66,62.57-4.23,14.86-1,32.81,13.34,38.38,13.78,5.36,28.79-3.87,34.16-15.85C275,1028.36,272.43,986.09,268.53,960Z"/><path class="cls-2" d="M629.32,951.6c-21.07,22.73-49.5,46.71-58.23,77.35-4.47,15.7-1.35,36.47,15.68,43.08,15.35,6,32.69-3.51,39.14-17.89C638.05,1027.09,634.27,978.83,629.32,951.6Z"/><path class="cls-1" d="M577,1077.75a30.86,30.86,0,0,1-11.2-2.08c-18.69-7.26-23.21-29.54-18-47.79,7.34-25.78,28.19-47.09,46.59-65.9,4.41-4.5,8.57-8.76,12.54-13l5.3-5.72,1.4,7.68c5.77,31.72,8.26,78.21-3.69,104.84C603.85,1069.32,590.46,1077.75,577,1077.75ZM607.23,960c-2.35,2.45-4.76,4.91-7.25,7.45-18.61,19-37.86,38.71-44.66,62.57-4.23,14.86-1,32.81,13.34,38.38,13.78,5.36,28.79-3.87,34.16-15.85C613.68,1028.36,611.13,986.09,607.23,960Z"/><polygon class="cls-3" points="528.83 863.97 451.7 863.97 526.63 711.91 441.42 711.91 363.92 909.14 434.44 909.14 382.28 1100.87 528.83 863.97"/><path class="cls-1" d="M485.77,732.4,416.39,873.2l-5.55,11.26h75.67L375.63,1063.72l38-139.84,2.68-9.86H347.07L418.43,732.4h67.34m12.55-7.81H413.11l-77.5,197.24h70.52L354,1113.56l146.56-236.9H423.39l74.93-152.07Z"/><path class="cls-4" d="M220.17,605c-61.72-1.71-131.27-14.72-175.7-57.59s-57-107.87-31.23-164C47,309.88,165.22,279.9,221.61,338c-21.94-99,38.58-207.32,188.89-217.08,94.5-6.14,194.42,77.67,180.58,171.79,88.82-47.83,158.17-22.63,205,18.55,30.17,26.53,41.85,54,47.83,93.7,13.67,90.77-62.93,171.67-147.44,189-34.6,7.09-73,5.54-108.18,7.22-47.21,2.26-94.51,4.14-141.79,4l-7.66-.05C363.88,604.27,294.71,607.08,220.17,605Z"/><path class="cls-1" d="M493.55,183c47.62,0,97.44,23.42,130,61.13,26.46,30.63,38.18,66.86,33,102l-2.26,15.39L668,354.22c30.92-16.65,61.25-25.1,90.17-25.1a147.41,147.41,0,0,1,58.58,12.17,179.22,179.22,0,0,1,47.36,30.46c26.78,23.56,39,47.68,45.27,89,6,40.12-6.46,81.28-35.2,115.89-27,32.58-65.71,56-106.09,64.28-24.4,5-51.24,5.59-77.18,6.16-9.85.22-20,.45-29.8.92-42.84,2-88.81,3.94-134.75,3.94H519.7l-7.61,0c-8.89-.09-18-.14-27.78-.14-22.14,0-44.19.23-65.51.46-21,.22-42.73.44-64.23.44-22.39,0-42.34-.25-61-.76-34.52-1-65.61-5.34-92.39-13-32.35-9.32-58.63-23.57-78.1-42.35A136.6,136.6,0,0,1,83.41,523.6a135.24,135.24,0,0,1,10.13-82.23c9.62-20.94,26.9-38.95,50-52.06A149.13,149.13,0,0,1,216,369.88c29.59,0,55.6,10,73.26,28.2l19.18,19.76-6-26.89a169.84,169.84,0,0,1-1-70.31,156.67,156.67,0,0,1,28.47-64c15.44-20.56,35.77-37.24,60.42-49.56,26.91-13.45,58.5-21.44,93.89-23.74,3.07-.2,6.21-.3,9.33-.3m0-7.81c-3.28,0-6.57.11-9.84.32-150.32,9.76-210.83,118.11-188.89,217.09-20.47-21.09-49.09-30.57-78.86-30.57-52.23,0-108,29.18-129.51,76.05-25.76,56.11-13.2,121.1,31.23,164s114,55.88,175.69,57.59c20.74.57,41.05.76,61.2.76,43.27,0,85.72-.9,129.74-.9q13.74,0,27.71.14l7.65,0h6.68c45.06,0,90.13-1.8,135.12-4,35.22-1.69,73.57-.14,108.17-7.23,84.51-17.31,161.11-98.21,147.45-189-6-39.73-17.67-67.17-47.83-93.7-28.76-25.31-66-44.57-111.1-44.57-28.28,0-59.63,7.58-93.88,26C677.64,256.48,585,175.23,493.55,175.23Z"/></g></g></svg>