<svg xmlns="http://www.w3.org/2000/svg" viewBox="0 0 1007.86 703.54"><defs><style>.cls-1{fill:#333;}.cls-2{fill:#f8ad3a;}.cls-3{fill:#fffeff;}</style></defs><g id="Warstwa_2" data-name="Warstwa 2"><g id="Слой_1" data-name="Слой 1"><path class="cls-1" d="M151.84,243a24.4,24.4,0,1,1,24.4-24.4A24.43,24.43,0,0,1,151.84,243Zm0-41a16.59,16.59,0,1,0,16.6,16.59A16.61,16.61,0,0,0,151.84,202.05Z"/><path class="cls-1" d="M399.77,48.8a24.4,24.4,0,1,1,24.4-24.4A24.43,24.43,0,0,1,399.77,48.8Zm0-41A16.6,16.6,0,1,0,416.36,24.4,16.61,16.61,0,0,0,399.77,7.81Z"/><path class="cls-1" d="M983.46,410a24.4,24.4,0,1,1,24.4-24.4A24.43,24.43,0,0,1,983.46,410Zm0-41a16.59,16.59,0,1,0,16.59,16.59A16.61,16.61,0,0,0,983.46,369Z"/><circle class="cls-2" cx="666.24" cy="311.37" r="191.53"/><rect class="cls-1" x="662.33" y="24.4" width="7.81" height="66.68"/><rect class="cls-1" x="662.33" y="531.66" width="7.81" height="66.68"/><rect class="cls-1" x="535.52" y="58.38" width="7.81" height="66.68" transform="translate(26.41 282) rotate(-30)"/><rect class="cls-1" x="789.15" y="497.68" width="7.81" height="66.68" transform="translate(-159.26 467.67) rotate(-30)"/><rect class="cls-1" x="442.68" y="151.22" width="7.81" height="66.68" transform="translate(63.46 479.03) rotate(-60)"/><rect class="cls-1" x="379.27" y="307.46" width="66.68" height="7.81"/><rect class="cls-1" x="886.53" y="307.46" width="66.68" height="7.81"/><rect class="cls-1" x="413.25" y="434.28" width="66.68" height="7.81" transform="translate(-159.27 282.02) rotate(-30)"/><rect class="cls-1" x="852.55" y="180.65" width="66.68" height="7.81" transform="matrix(0.87, -0.5, 0.5, 0.87, 26.42, 467.69)"/><rect class="cls-1" x="506.08" y="527.11" width="66.68" height="7.81" transform="translate(-190.17 732.64) rotate(-60)"/><rect class="cls-1" x="759.71" y="87.82" width="66.68" height="7.81" transform="matrix(0.5, -0.87, 0.87, 0.5, 317.07, 732.65)"/><path class="cls-3" d="M220.17,648.12c-61.72-1.7-131.27-14.72-175.7-57.59s-57-107.87-31.23-164C47,353,165.22,323,221.61,381.07c-21.94-99,38.58-207.33,188.89-217.09,94.5-6.14,194.42,77.67,180.58,171.79,88.82-47.83,158.17-22.63,205,18.55,30.17,26.53,41.85,54,47.83,93.7C857.55,538.8,781,619.69,696.44,637c-34.6,7.09-73,5.54-108.18,7.23-47.21,2.26-94.51,4.13-141.79,3.94l-7.66,0C363.88,647.36,294.71,650.17,220.17,648.12Z"/><path class="cls-1" d="M493.55,226.13c47.62,0,97.44,23.43,130,61.13,26.46,30.63,38.18,66.87,33,102l-2.26,15.38L668,397.31c30.92-16.65,61.25-25.09,90.17-25.09a147.39,147.39,0,0,1,58.58,12.16,179.22,179.22,0,0,1,47.36,30.46c26.78,23.56,39,47.68,45.27,89,6,40.12-6.46,81.28-35.2,115.89-27,32.58-65.72,56-106.09,64.28-24.4,5-51.24,5.59-77.18,6.17-9.85.21-20,.44-29.8.91-42.84,2-88.81,3.94-134.75,3.94H519.7l-7.61,0c-8.89-.09-18-.14-27.78-.14-22.14,0-44.19.23-65.51.46-21,.22-42.73.44-64.23.44-22.39,0-42.34-.25-61-.76-34.53-1-65.61-5.34-92.39-13.05-32.35-9.32-58.63-23.56-78.1-42.35a136.6,136.6,0,0,1-39.69-72.88,135.24,135.24,0,0,1,10.13-82.23c9.62-20.94,26.9-38.94,50-52.06A149.13,149.13,0,0,1,216,413c29.59,0,55.6,10,73.26,28.2l19.18,19.76-6-26.89a169.84,169.84,0,0,1-1-70.31,156.67,156.67,0,0,1,28.47-64c15.44-20.56,35.77-37.24,60.42-49.56,26.91-13.45,58.5-21.44,93.89-23.74,3.07-.2,6.21-.3,9.33-.3m0-7.81c-3.28,0-6.57.11-9.84.32C333.39,228.4,272.88,336.75,294.82,435.73c-20.47-21.09-49.09-30.57-78.86-30.57-52.23,0-108,29.18-129.51,76-25.76,56.11-13.2,121.1,31.23,164s114,55.89,175.69,57.59c20.74.57,41.05.76,61.2.76,43.27,0,85.72-.9,129.74-.9q13.74,0,27.71.14l7.65.05h6.68c45.06,0,90.13-1.8,135.12-4,35.22-1.69,73.57-.14,108.17-7.23,84.51-17.31,161.11-98.2,147.45-189-6-39.72-17.67-67.17-47.83-93.7-28.76-25.31-66-44.57-111.1-44.57-28.28,0-59.63,7.58-93.88,26C677.64,299.57,585,218.32,493.55,218.32Z"/></g></g></svg>