<svg xmlns="http://www.w3.org/2000/svg" viewBox="0 0 918.68 539.88"><defs><style>.cls-1{fill:#fffeff;}.cls-2{fill:#333;}</style></defs><g id="Warstwa_2" data-name="Warstwa 2"><g id="Слой_1" data-name="Слой 1"><path class="cls-1" d="M220.17,484.45c-61.72-1.7-131.27-14.71-175.7-57.59s-57-107.86-31.23-164c33.77-73.57,152-103.56,208.37-45.48C199.67,118.42,260.19,10.08,410.5.32,505-5.82,604.92,78,591.08,172.11c88.82-47.83,158.17-22.63,205,18.54,30.17,26.54,41.85,54,47.83,93.71C857.55,375.13,781,456,696.44,473.34c-34.6,7.08-73,5.54-108.18,7.22-47.21,2.26-94.51,4.14-141.79,3.95-2.56,0-5.11,0-7.66-.06C363.88,483.7,294.71,486.51,220.17,484.45Z"/><path class="cls-2" d="M493.55,62.47c47.62,0,97.44,23.42,130,61.13,26.46,30.62,38.18,66.86,33,102L654.3,241,668,233.64c30.92-16.65,61.25-25.09,90.17-25.09a147.39,147.39,0,0,1,58.58,12.16,179.52,179.52,0,0,1,47.36,30.47c26.78,23.55,39,47.67,45.27,89,6,40.12-6.46,81.28-35.2,115.89-27,32.58-65.71,56-106.09,64.28-24.41,5-51.24,5.59-77.18,6.16-9.85.22-20,.44-29.8.91-42.83,2.05-88.8,4-134.75,4H519.7l-7.61-.06c-8.89-.09-18-.13-27.78-.13-22.14,0-44.19.23-65.51.45-21,.22-42.73.45-64.23.45-22.4,0-42.34-.25-61-.76-34.53-.95-65.61-5.35-92.39-13-32.35-9.32-58.63-23.57-78.1-42.36A135.62,135.62,0,0,1,93.54,320.8c9.62-20.95,26.9-38.95,50-52.06A149.13,149.13,0,0,1,216,249.31c29.59,0,55.6,10,73.26,28.19l19.18,19.76-6-26.89a169.84,169.84,0,0,1-1-70.31,156.69,156.69,0,0,1,28.47-64c15.44-20.56,35.77-37.24,60.42-49.57,26.91-13.45,58.5-21.43,93.89-23.73,3.07-.2,6.21-.3,9.33-.3m0-7.81c-3.28,0-6.57.11-9.84.32-150.32,9.76-210.83,118.1-188.89,217.08C274.35,251,245.73,241.5,216,241.5c-52.23,0-108,29.18-129.51,76-25.76,56.12-13.2,121.11,31.23,164s114,55.89,175.69,57.59c20.74.57,41.05.77,61.2.77,43.27,0,85.72-.9,129.74-.9q13.74,0,27.71.13l7.65.06h6.68c45.06,0,90.13-1.8,135.12-4,35.22-1.68,73.57-.14,108.17-7.22,84.51-17.31,161.11-98.21,147.45-189-6-39.73-17.67-67.17-47.83-93.71-28.76-25.3-66-44.57-111.1-44.57-28.28,0-59.64,7.59-93.88,26C677.64,135.9,585,54.66,493.55,54.66Z"/></g></g></svg>