<svg xmlns="http://www.w3.org/2000/svg" viewBox="0 0 918.68 938.52"><defs><style>.cls-1{fill:#fffeff;}.cls-2{fill:#333;}.cls-3{fill:#3e77e0;}</style></defs><g id="Warstwa_2" data-name="Warstwa 2"><g id="Слой_1" data-name="Слой 1"><path class="cls-1" d="M220.17,484.45c-61.72-1.7-131.27-14.71-175.7-57.59s-57-107.86-31.23-164c33.77-73.57,152-103.56,208.37-45.48C199.67,118.42,260.19,10.08,410.5.32,505-5.82,604.92,78,591.08,172.11c88.82-47.83,158.17-22.63,205,18.54,30.17,26.54,41.85,54,47.83,93.71C857.55,375.13,781,456,696.44,473.34c-34.6,7.08-73,5.54-108.18,7.22-47.21,2.26-94.51,4.14-141.79,3.95-2.56,0-5.11,0-7.66-.06C363.88,483.7,294.71,486.51,220.17,484.45Z"/><path class="cls-2" d="M493.55,62.47c47.62,0,97.44,23.42,130,61.13,26.46,30.63,38.18,66.86,33,102L654.3,241,668,233.64c30.92-16.65,61.25-25.09,90.17-25.09a147.39,147.39,0,0,1,58.58,12.16,179.52,179.52,0,0,1,47.36,30.47c26.78,23.55,39,47.67,45.27,89,6,40.12-6.46,81.28-35.2,115.89-27,32.58-65.72,56-106.09,64.28-24.4,5-51.24,5.59-77.18,6.16-9.85.22-20,.44-29.8.91-42.84,2.05-88.81,4-134.75,4H519.7l-7.61-.06c-8.89-.09-18-.13-27.78-.13-22.14,0-44.19.23-65.51.45-21,.22-42.73.45-64.23.45-22.39,0-42.34-.25-61-.76-34.53-.95-65.61-5.35-92.39-13-32.35-9.32-58.63-23.57-78.1-42.35A136.6,136.6,0,0,1,83.41,403,135.24,135.24,0,0,1,93.54,320.8c9.62-20.95,26.9-38.95,50-52.06A149.13,149.13,0,0,1,216,249.31c29.59,0,55.6,10,73.26,28.19l19.18,19.76-6-26.89a169.84,169.84,0,0,1-1-70.31,156.69,156.69,0,0,1,28.47-64c15.44-20.56,35.77-37.24,60.42-49.57,26.91-13.45,58.5-21.43,93.89-23.73,3.07-.2,6.21-.3,9.33-.3m0-7.81c-3.28,0-6.57.11-9.84.32-150.32,9.76-210.83,118.1-188.89,217.08C274.35,251,245.73,241.5,216,241.5c-52.23,0-108,29.18-129.51,76-25.76,56.12-13.2,121.11,31.23,164s114,55.89,175.69,57.59c20.74.57,41.05.77,61.2.77,43.27,0,85.72-.9,129.74-.9q13.74,0,27.71.13l7.65.06h6.68c45.06,0,90.13-1.8,135.12-4,35.22-1.68,73.57-.14,108.17-7.22,84.51-17.31,161.11-98.21,147.45-189-6-39.73-17.67-67.17-47.83-93.71-28.76-25.3-66-44.57-111.1-44.57-28.28,0-59.63,7.59-93.88,26C677.64,135.9,585,54.66,493.55,54.66Z"/><path class="cls-3" d="M220.09,589.65c-13.78,27.76-34.29,58.8-34,90.65.15,16.33,9,35.37,27.21,36.9,16.41,1.39,30.37-12.6,32.49-28.22C249.8,659.6,232.54,614.38,220.09,589.65Z"/><path class="cls-2" d="M196.8,726.72c-.85,0-1.7,0-2.55-.11-20-1.69-30.62-21.78-30.79-40.76-.24-26.79,13.74-53.13,26.07-76.36,2.95-5.57,5.75-10.84,8.34-16.06l3.47-7,3.52,7c14.49,28.8,30,72.69,26.07,101.62C228.48,713,213.46,726.72,196.8,726.72ZM201.27,604c-1.56,3-3.18,6-4.85,9.2C184,636.66,171,661,171.27,685.78c.14,15.44,8.3,31.75,23.64,33.05C209.64,720.07,221.43,707,223.2,694,226.78,667.71,212.39,627.88,201.27,604Z"/><path class="cls-3" d="M476.8,618c-13.78,27.75-34.29,58.79-34,90.65.15,16.33,9,35.36,27.21,36.9,16.41,1.38,30.36-12.61,32.49-28.22C506.5,687.91,489.25,642.69,476.8,618Z"/><path class="cls-2" d="M453.51,755c-.85,0-1.7,0-2.55-.11-20-1.68-30.62-21.77-30.79-40.75-.24-26.8,13.73-53.13,26.07-76.37,2.95-5.57,5.75-10.83,8.34-16l3.47-7,3.51,7c14.5,28.8,30,72.69,26.08,101.61C485.19,741.32,470.17,755,453.51,755ZM458,632.26c-1.56,3-3.18,6-4.85,9.2C440.66,665,427.75,689.27,428,714.09c.14,15.44,8.3,31.75,23.63,33,14.74,1.25,26.53-11.85,28.3-24.85C483.48,696,469.1,656.19,458,632.26Z"/><path class="cls-3" d="M681.78,592.58c-13.79,27.76-34.29,58.8-34,90.65.14,16.33,9,35.37,27.21,36.9,16.4,1.38,30.36-12.6,32.49-28.22C711.48,662.53,694.22,617.31,681.78,592.58Z"/><path class="cls-2" d="M658.49,729.64c-.85,0-1.7,0-2.55-.1-20-1.69-30.62-21.78-30.8-40.76-.24-26.8,13.74-53.13,26.07-76.36,3-5.57,5.75-10.84,8.35-16.06l3.47-7,3.51,7C681,625.14,696.56,669,692.62,698,690.17,715.94,675.15,729.64,658.49,729.64ZM663,606.88c-1.57,3-3.18,6-4.85,9.2-12.48,23.51-25.38,47.82-25.16,72.63.14,15.44,8.31,31.75,23.64,33,14.72,1.24,26.52-11.85,28.29-24.86C688.46,670.64,674.08,630.81,663,606.88Z"/><path class="cls-3" d="M329.41,798.53c-13.78,27.76-34.29,58.8-34,90.65.15,16.33,9,35.37,27.21,36.9,16.41,1.39,30.37-12.6,32.49-28.22C359.12,868.48,341.86,823.26,329.41,798.53Z"/><path class="cls-2" d="M306.12,935.6c-.84,0-1.7,0-2.55-.11-20-1.69-30.62-21.78-30.79-40.76-.24-26.79,13.74-53.13,26.07-76.36,2.95-5.57,5.75-10.83,8.34-16.06l3.48-7,3.51,7c14.49,28.8,30,72.69,26.08,101.62C337.81,921.89,322.78,935.6,306.12,935.6Zm4.47-122.77c-1.56,3-3.18,6.06-4.84,9.2-12.48,23.51-25.38,47.82-25.16,72.63.14,15.45,8.3,31.75,23.64,33.05,14.72,1.24,26.52-11.85,28.29-24.86C336.1,876.59,321.71,836.76,310.59,812.83Z"/><path class="cls-3" d="M602.72,801.46c-13.79,27.76-34.29,58.8-34,90.65.15,16.33,9,35.37,27.22,36.9,16.4,1.38,30.36-12.6,32.49-28.22C632.42,871.41,615.16,826.19,602.72,801.46Z"/><path class="cls-2" d="M579.42,938.52c-.84,0-1.69,0-2.55-.1-20-1.69-30.62-21.78-30.79-40.76-.24-26.79,13.74-53.13,26.07-76.36,3-5.57,5.75-10.84,8.34-16.06l3.48-7,3.51,7c14.49,28.8,30,72.69,26.08,101.61C611.11,924.82,596.08,938.52,579.42,938.52Zm4.48-122.76c-1.57,3-3.18,6-4.85,9.2-12.48,23.51-25.38,47.82-25.16,72.63.14,15.44,8.31,31.75,23.64,33,14.74,1.23,26.52-11.85,28.29-24.86C609.4,879.52,595,839.69,583.9,815.76Z"/></g></g></svg>