<svg xmlns="http://www.w3.org/2000/svg" viewBox="0 0 1070.54 961.58"><defs><style>.cls-1{fill:#333;}.cls-2{fill:#f8ad3a;}.cls-3{fill:#fffeff;}</style></defs><g id="Warstwa_2" data-name="Warstwa 2"><g id="Слой_1" data-name="Слой 1"><path class="cls-1" d="M888.9,327.21l4,15.6.45,1.76,1.19,1.38,16.78,19.59-16.78,19.6-1.19,1.38-.45,1.76-4,15.59-4-15.59-.45-1.76-1.18-1.38-16.79-19.6L883.27,346l1.18-1.38.45-1.76,4-15.6m0-31.46-11.56,45.12L856.2,365.54l21.14,24.68,11.56,45.11,11.56-45.11,21.14-24.68-21.14-24.67L888.9,295.75Z"/><path class="cls-1" d="M771.77,28.55l3.7,13,.53,1.85,1.32,1.4L792.71,61,777.32,77.19,776,78.59l-.53,1.85-3.7,13-3.71-13-.52-1.85-1.33-1.4L750.82,61l15.39-16.18,1.33-1.4.52-1.85,3.71-13m0-28.55L760.55,39.44,740,61l20.51,21.57L771.77,122,783,82.57,803.49,61,783,39.44,771.77,0Z"/><path class="cls-2" d="M739.51,434.71c-87.5-92.46-101.22-228-43.2-333.91A285.75,285.75,0,0,0,623,151.18C508.32,259.74,503.33,440.75,611.9,555.48s289.57,119.71,404.29,11.14a285.44,285.44,0,0,0,54.35-70.38C961.55,548.34,827,527.17,739.51,434.71Z"/><path class="cls-1" d="M654.44,141.9a292.89,292.89,0,0,0,55.29,321c56,59.23,131.84,91.84,213.42,91.84a296.16,296.16,0,0,0,104.08-19A278.18,278.18,0,1,1,654.44,141.9m17.77-18.29A285.58,285.58,0,0,0,598.94,174c-114.72,108.56-119.71,289.57-11.15,404.3a286.13,286.13,0,0,0,458.64-59.24,286.22,286.22,0,0,1-331-61.53c-87.49-92.46-101.21-228-43.19-333.91Z"/><path class="cls-3" d="M220.17,825.91c-61.72-1.7-131.27-14.72-175.7-57.59s-57-107.87-31.23-164c33.77-73.58,152-103.56,208.37-45.48-21.94-99,38.58-207.33,188.89-217.09,94.5-6.14,194.42,77.67,180.58,171.79,88.82-47.83,158.17-22.63,205,18.55,30.17,26.53,41.85,54,47.83,93.7,13.67,90.77-62.93,171.67-147.44,189-34.6,7.09-73,5.54-108.18,7.23-47.21,2.26-94.51,4.13-141.79,3.94l-7.66-.05C363.88,825.15,294.71,828,220.17,825.91Z"/><path class="cls-1" d="M493.55,403.92c47.62,0,97.44,23.43,130,61.13,26.46,30.63,38.18,66.87,33,102l-2.26,15.38L668,575.1C698.91,558.45,729.24,550,758.16,550a147.39,147.39,0,0,1,58.58,12.16,179.06,179.06,0,0,1,47.36,30.46c26.78,23.56,39,47.68,45.27,89,6,40.12-6.46,81.28-35.2,115.89-27,32.58-65.72,56-106.09,64.28-24.4,5-51.24,5.59-77.18,6.17-9.85.21-20,.44-29.8.91-42.83,2-88.8,3.94-134.75,3.94H519.7l-7.61,0c-8.89-.09-18-.14-27.78-.14-22.14,0-44.19.23-65.51.46-21,.22-42.73.44-64.23.44-22.4,0-42.34-.25-61-.76-34.53-1-65.61-5.34-92.39-13-32.35-9.32-58.63-23.56-78.1-42.35a136.6,136.6,0,0,1-39.69-72.88,135.24,135.24,0,0,1,10.13-82.23c9.62-20.94,26.9-38.94,50-52.06A149.13,149.13,0,0,1,216,590.76c29.59,0,55.6,10,73.26,28.2l19.18,19.76-6-26.89a169.84,169.84,0,0,1-1-70.31,156.67,156.67,0,0,1,28.47-64C345.35,457,365.68,440.28,390.33,428c26.91-13.45,58.5-21.44,93.89-23.74,3.07-.2,6.21-.3,9.33-.3m0-7.81c-3.28,0-6.57.11-9.84.32-150.32,9.76-210.83,118.11-188.89,217.09C274.35,592.43,245.73,583,216,583c-52.23,0-108,29.18-129.51,76-25.76,56.11-13.2,121.1,31.23,164s114,55.89,175.69,57.59c20.74.57,41.05.76,61.2.76,43.27,0,85.72-.9,129.74-.9q13.74,0,27.71.14l7.65,0h6.68c45.06,0,90.13-1.8,135.12-4,35.22-1.69,73.57-.14,108.17-7.23,84.51-17.31,161.11-98.2,147.45-189-6-39.72-17.67-67.17-47.83-93.7-28.76-25.31-66-44.57-111.1-44.57-28.28,0-59.64,7.58-93.88,26C677.64,477.36,585,396.11,493.55,396.11Z"/><path class="cls-1" d="M123.54,410.1a24.41,24.41,0,1,1,24.4-24.41A24.44,24.44,0,0,1,123.54,410.1Zm0-41a16.6,16.6,0,1,0,16.59,16.59A16.61,16.61,0,0,0,123.54,369.1Z"/><path class="cls-1" d="M387.08,284.18a24.4,24.4,0,1,1,24.4-24.4A24.42,24.42,0,0,1,387.08,284.18Zm0-41a16.59,16.59,0,1,0,16.59,16.59A16.61,16.61,0,0,0,387.08,243.19Z"/><path class="cls-1" d="M818.5,961.58a24.4,24.4,0,1,1,24.41-24.4A24.43,24.43,0,0,1,818.5,961.58Zm0-41a16.59,16.59,0,1,0,16.6,16.59A16.61,16.61,0,0,0,818.5,920.59Z"/></g></g></svg>