<svg xmlns="http://www.w3.org/2000/svg" viewBox="0 0 699.85 788.67"><defs><style>.cls-1{fill:#f8ad3a;}.cls-2{fill:#333;}</style></defs><g id="Warstwa_2" data-name="Warstwa 2"><g id="Слой_1" data-name="Слой 1"><path class="cls-1" d="M323,376.83C301.42,251.38,365.12,131,472.13,75a285.76,285.76,0,0,0-88.91,1.32C227.56,103.06,123.08,251,149.85,406.62S324.52,666.76,480.19,640a285.93,285.93,0,0,0,84.24-28.46C444.84,594.48,344.58,502.29,323,376.83Z"/><path class="cls-2" d="M399.24,85.54c5.07,0,10.17.14,15.26.43a293.92,293.92,0,0,0,91.93,534.44A278.18,278.18,0,1,1,399.24,85.54m0-7.81a286.79,286.79,0,0,0-48.72,4.18C194.85,108.68,90.37,256.58,117.15,412.24,141.1,551.5,262,649.8,398.66,649.8a288,288,0,0,0,133.06-32.65c-119.58-17-219.84-109.24-241.42-234.69S332.41,136.61,439.43,80.58a284.83,284.83,0,0,0-40.19-2.85Z"/><path class="cls-2" d="M626.15,676.73l5.8,19.68.55,1.88,1.38,1.4,18.9,19.19-18.9,19.2-1.38,1.39-.55,1.88L626.15,761l-5.79-19.68-.55-1.88-1.38-1.39-18.9-19.2,18.9-19.19,1.38-1.4.55-1.88,5.79-19.68m0-27.64-13.28,45.12-24.29,24.67,24.29,24.68,13.28,45.11,13.29-45.11,24.29-24.68-24.29-24.67-13.29-45.12Z"/><path class="cls-2" d="M674.87,608.39l1.34,4.56.55,1.87,1.38,1.4,10.75,10.91L678.14,638l-1.38,1.4-.55,1.88-1.34,4.55-1.34-4.55-.56-1.88L671.6,638l-10.75-10.91,10.75-10.91,1.37-1.4.56-1.88,1.34-4.55m0-27.62-8.83,30-16.15,16.39L666,643.52l8.83,30,8.83-30,16.15-16.39L683.7,610.74l-8.83-30Z"/><path class="cls-2" d="M564.66,31.46l4,15.59.45,1.76,1.18,1.39,16.79,19.59L570.29,89.38l-1.18,1.38-.45,1.77-4,15.59-4-15.59-.45-1.77L559,89.38,542.24,69.79,559,50.2l1.18-1.39.45-1.76,4-15.59m0-31.46L553.1,45.12,532,69.79,553.1,94.46l11.56,45.12,11.56-45.12,21.14-24.67L576.22,45.12,564.66,0Z"/><path class="cls-2" d="M31.72,435.57l3.71,13,.52,1.85,1.33,1.39L52.67,468,37.28,484.22,36,485.61l-.52,1.85-3.71,13-3.7-13-.53-1.85-1.32-1.39L10.77,468l15.4-16.19,1.32-1.39L28,448.6l3.7-13m0-28.55L20.51,446.46,0,468,20.51,489.6,31.72,529,42.94,489.6,63.45,468,42.94,446.46,31.72,407Z"/></g></g></svg>