<svg xmlns="http://www.w3.org/2000/svg" viewBox="0 0 918.68 1109.66"><defs><style>.cls-1{fill:#3e77e0;}.cls-2{fill:#333;}.cls-3{fill:#f8ad3a;}.cls-4{fill:#fffeff;}</style></defs><g id="Warstwa_2" data-name="Warstwa 2"><g id="Слой_1" data-name="Слой 1"><path class="cls-1" d="M222.05,708.27c-13.79,27.76-34.29,58.8-34,90.65.15,16.33,9,35.37,27.22,36.9,16.4,1.39,30.36-12.6,32.49-28.22C251.75,778.22,234.49,733,222.05,708.27Z"/><path class="cls-2" d="M198.75,845.34c-.85,0-1.69,0-2.55-.11-20-1.69-30.62-21.78-30.79-40.76-.24-26.79,13.74-53.13,26.07-76.37,3-5.57,5.75-10.83,8.34-16.05l3.48-7,3.51,7c14.49,28.8,30,72.69,26.08,101.62C230.44,831.63,215.41,845.34,198.75,845.34Zm4.48-122.77c-1.57,3-3.18,6-4.85,9.19C185.9,755.27,173,779.59,173.22,804.4c.14,15.45,8.3,31.75,23.64,33.05.65,0,1.3.08,1.94.08,13.81,0,24.66-12.51,26.35-24.94C228.73,786.33,214.34,746.5,203.23,722.57Z"/><path class="cls-1" d="M697.4,705.34c-13.79,27.76-34.29,58.8-34,90.65.15,16.33,9,35.37,27.22,36.9,16.4,1.39,30.36-12.6,32.49-28.22C727.1,775.29,709.84,730.07,697.4,705.34Z"/><path class="cls-2" d="M674.1,842.41c-.85,0-1.69,0-2.55-.11-20-1.68-30.62-21.78-30.79-40.75-.24-26.8,13.74-53.14,26.07-76.37,3-5.57,5.75-10.84,8.34-16.06l3.48-7,3.51,7c14.49,28.8,30,72.69,26.08,101.62C705.79,828.71,690.76,842.41,674.1,842.41Zm4.48-122.77c-1.57,3-3.18,6.05-4.85,9.2-12.48,23.51-25.38,47.82-25.16,72.64.14,15.44,8.3,31.75,23.64,33,.65.06,1.3.08,1.94.08,13.81,0,24.66-12.51,26.35-24.94C704.08,783.4,689.69,743.58,678.58,719.64Z"/><path class="cls-1" d="M281.59,942.53c-13.79,27.76-34.29,58.8-34,90.65.15,16.33,9,35.37,27.22,36.9,16.4,1.39,30.36-12.6,32.49-28.22C311.29,1012.48,294,967.26,281.59,942.53Z"/><path class="cls-2" d="M258.29,1079.6c-.85,0-1.69,0-2.55-.11-20-1.69-30.62-21.78-30.79-40.76-.24-26.8,13.74-53.13,26.07-76.37,3-5.57,5.75-10.83,8.34-16.05l3.48-7,3.51,7c14.49,28.8,30,72.69,26.08,101.61C290,1065.89,275,1079.6,258.29,1079.6Zm4.48-122.77c-1.57,3-3.18,6-4.85,9.19-12.48,23.51-25.38,47.82-25.16,72.64.14,15.44,8.3,31.75,23.64,33,.65,0,1.3.08,1.94.08,13.81,0,24.66-12.51,26.35-24.94C288.27,1020.59,273.88,980.76,262.77,956.83Z"/><path class="cls-1" d="M618.33,935.7c-13.78,27.75-34.29,58.79-34,90.65.15,16.33,9,35.36,27.21,36.9,16.41,1.38,30.37-12.61,32.49-28.22C648,1005.65,630.78,960.43,618.33,935.7Z"/><path class="cls-2" d="M595,1072.76c-.85,0-1.7,0-2.55-.1-20-1.69-30.62-21.78-30.79-40.76-.24-26.8,13.74-53.14,26.07-76.37,3-5.57,5.75-10.83,8.34-16l3.47-7,3.52,7c14.49,28.8,30,72.69,26.08,101.61C626.72,1059.06,611.7,1072.76,595,1072.76ZM599.51,950c-1.56,3-3.18,6-4.84,9.19-12.48,23.51-25.39,47.82-25.16,72.64.14,15.44,8.3,31.75,23.64,33.05.65,0,1.3.08,1.93.08,13.82,0,24.67-12.51,26.36-24.94C625,1013.76,610.63,973.93,599.51,950Z"/><path class="cls-2" d="M132.69,212.79a24.41,24.41,0,1,1,24.41-24.41A24.44,24.44,0,0,1,132.69,212.79Zm0-41a16.6,16.6,0,1,0,16.6,16.59A16.61,16.61,0,0,0,132.69,171.79Z"/><path class="cls-2" d="M478.23,48.8a24.4,24.4,0,1,1,24.4-24.4A24.43,24.43,0,0,1,478.23,48.8Zm0-41A16.6,16.6,0,1,0,494.82,24.4,16.61,16.61,0,0,0,478.23,7.81Z"/><path class="cls-2" d="M761.29,212.79a24.41,24.41,0,1,1,24.4-24.41A24.43,24.43,0,0,1,761.29,212.79Zm0-41a16.6,16.6,0,1,0,16.59,16.59A16.61,16.61,0,0,0,761.29,171.79Z"/><polygon class="cls-3" points="552.26 860.06 475.13 860.06 550.05 708 464.84 708 387.34 905.24 457.86 905.24 405.71 1096.97 552.26 860.06"/><path class="cls-2" d="M509.2,728.5,439.81,869.3l-5.54,11.26h75.67L399.05,1059.81l38-139.83,2.68-9.86H370.49L441.86,728.5H509.2m12.55-7.81H436.54L359,917.93h70.52L377.4,1109.66,524,872.75H446.82l74.93-152.06Z"/><path class="cls-4" d="M220.17,605c-61.72-1.71-131.27-14.72-175.7-57.59s-57-107.87-31.23-164C47,309.88,165.22,279.9,221.61,338c-21.94-99,38.58-207.32,188.89-217.08,94.5-6.14,194.42,77.67,180.58,171.79,88.82-47.83,158.17-22.63,205,18.55,30.17,26.53,41.85,54,47.83,93.7,13.67,90.77-62.93,171.67-147.44,189-34.6,7.09-73,5.54-108.18,7.22-47.21,2.26-94.51,4.14-141.79,4l-7.66-.05C363.88,604.27,294.71,607.08,220.17,605Z"/><path class="cls-2" d="M493.55,183c47.62,0,97.44,23.42,130,61.13,26.46,30.63,38.18,66.86,33,102l-2.26,15.39L668,354.22c30.92-16.65,61.25-25.1,90.17-25.1a147.41,147.41,0,0,1,58.58,12.17,179.22,179.22,0,0,1,47.36,30.46c26.78,23.56,39,47.68,45.27,89,6,40.12-6.46,81.28-35.2,115.89-27,32.58-65.71,56-106.09,64.28-24.4,5-51.24,5.59-77.18,6.16-9.85.22-20,.45-29.8.92-42.84,2-88.81,3.94-134.75,3.94H519.7l-7.61,0c-8.89-.09-18-.14-27.78-.14-22.14,0-44.19.23-65.51.46-21,.22-42.73.44-64.23.44-22.39,0-42.34-.25-61-.76-34.53-1-65.61-5.34-92.39-13-32.35-9.32-58.63-23.57-78.1-42.35A136.6,136.6,0,0,1,83.41,523.6a135.24,135.24,0,0,1,10.13-82.23c9.62-20.94,26.9-38.95,50-52.06A149.13,149.13,0,0,1,216,369.88c29.59,0,55.6,10,73.26,28.2l19.18,19.76-6-26.89a169.84,169.84,0,0,1-1-70.31,156.67,156.67,0,0,1,28.47-64c15.44-20.56,35.77-37.24,60.42-49.56,26.91-13.45,58.5-21.44,93.89-23.74,3.07-.2,6.21-.3,9.33-.3m0-7.81c-3.28,0-6.57.11-9.84.32-150.32,9.76-210.83,118.11-188.89,217.09-20.47-21.09-49.09-30.57-78.86-30.57-52.23,0-108,29.18-129.51,76.05-25.76,56.11-13.2,121.1,31.23,164s114,55.88,175.69,57.59c20.74.57,41.05.76,61.2.76,43.27,0,85.72-.9,129.74-.9q13.74,0,27.71.14l7.65,0h6.68c45.06,0,90.13-1.8,135.12-4,35.22-1.69,73.57-.14,108.17-7.23,84.51-17.31,161.11-98.21,147.45-189-6-39.73-17.67-67.17-47.83-93.7-28.76-25.31-66-44.57-111.1-44.57-28.28,0-59.63,7.58-93.88,26C677.64,256.48,585,175.23,493.55,175.23Z"/></g></g></svg>