<svg xmlns="http://www.w3.org/2000/svg" viewBox="0 0 918.68 1089.3"><defs><style>.cls-1{fill:#333;}.cls-2{fill:#fffeff;}.cls-3{fill:#f8ad3a;}</style></defs><g id="Warstwa_2" data-name="Warstwa 2"><g id="Слой_1" data-name="Слой 1"><path class="cls-1" d="M130.37,212.79a24.41,24.41,0,1,1,24.4-24.41A24.43,24.43,0,0,1,130.37,212.79Zm0-41A16.6,16.6,0,1,0,147,188.38,16.61,16.61,0,0,0,130.37,171.79Z"/><path class="cls-1" d="M475.9,48.8a24.4,24.4,0,1,1,24.4-24.4A24.42,24.42,0,0,1,475.9,48.8Zm0-41A16.6,16.6,0,1,0,492.49,24.4,16.61,16.61,0,0,0,475.9,7.81Z"/><path class="cls-1" d="M759,212.79a24.41,24.41,0,1,1,24.4-24.41A24.44,24.44,0,0,1,759,212.79Zm0-41a16.6,16.6,0,1,0,16.6,16.59A16.61,16.61,0,0,0,759,171.79Z"/><rect class="cls-1" x="624.36" y="740.42" width="19.43" height="7.81"/><rect class="cls-1" x="587.17" y="740.42" width="18.87" height="7.81"/><rect class="cls-1" x="611.44" y="712" width="7.81" height="26.64"/><rect class="cls-1" x="611.44" y="750.85" width="7.81" height="26.64"/><rect class="cls-1" x="254.43" y="834.13" width="19.43" height="7.81"/><rect class="cls-1" x="217.24" y="834.13" width="18.87" height="7.81"/><rect class="cls-1" x="241.51" y="805.7" width="7.81" height="26.64"/><rect class="cls-1" x="241.51" y="844.56" width="7.81" height="26.64"/><rect class="cls-1" x="541.39" y="1047.89" width="19.43" height="7.81"/><rect class="cls-1" x="504.21" y="1047.89" width="18.87" height="7.81"/><rect class="cls-1" x="528.48" y="1019.47" width="7.81" height="26.64"/><rect class="cls-1" x="528.48" y="1058.32" width="7.81" height="26.64"/><path class="cls-2" d="M220.17,583.69C158.45,582,88.9,569,44.47,526.11s-57-107.87-31.23-164c33.77-73.57,152-103.55,208.37-45.48-21.94-99,38.58-207.32,188.89-217.08,94.5-6.14,194.42,77.67,180.58,171.79,88.82-47.83,158.17-22.63,205,18.55,30.17,26.53,41.85,54,47.83,93.7,13.67,90.77-62.93,171.67-147.44,189-34.6,7.09-73,5.54-108.18,7.22-47.21,2.26-94.51,4.14-141.79,4q-3.84,0-7.66-.06C363.88,582.94,294.71,585.75,220.17,583.69Z"/><path class="cls-1" d="M493.55,161.71c47.62,0,97.44,23.42,130,61.13,26.46,30.63,38.18,66.86,33,102l-2.26,15.39L668,332.89c30.92-16.65,61.25-25.1,90.17-25.1A147.41,147.41,0,0,1,816.74,320a179.22,179.22,0,0,1,47.36,30.46c26.78,23.55,39,47.68,45.27,89,6,40.12-6.46,81.28-35.2,115.89-27,32.58-65.71,56-106.09,64.28-24.4,5-51.23,5.59-77.18,6.16-9.85.22-20,.45-29.8.92-42.84,2.05-88.81,3.94-134.75,3.94H519.7l-7.61-.05c-8.89-.09-18-.14-27.78-.14-22.14,0-44.19.23-65.51.46-21,.22-42.73.44-64.23.44-22.39,0-42.34-.25-61-.76-34.53-.95-65.61-5.34-92.39-13-32.35-9.32-58.63-23.57-78.1-42.35a136.6,136.6,0,0,1-39.69-72.88A135.24,135.24,0,0,1,93.54,420c9.62-20.94,26.9-39,50-52.06A149.13,149.13,0,0,1,216,348.55c29.59,0,55.6,10,73.26,28.19l19.18,19.77-6-26.89a169.84,169.84,0,0,1-1-70.31,156.67,156.67,0,0,1,28.47-64c15.44-20.56,35.77-37.24,60.42-49.56,26.91-13.45,58.5-21.44,93.89-23.74,3.07-.2,6.21-.3,9.33-.3m0-7.81c-3.28,0-6.57.11-9.84.32C333.39,164,272.88,272.33,294.82,371.31c-20.47-21.09-49.09-30.57-78.86-30.57-52.23,0-108,29.18-129.51,76.05-25.76,56.11-13.2,121.1,31.23,164s114,55.88,175.69,57.59c20.74.57,41.05.76,61.2.76,43.27,0,85.72-.9,129.74-.9q13.74,0,27.71.14l7.65,0h6.68c45.06,0,90.13-1.8,135.12-4,35.22-1.68,73.57-.13,108.17-7.22,84.51-17.31,161.11-98.21,147.45-189-6-39.73-17.67-67.17-47.83-93.7-28.76-25.31-66-44.57-111.1-44.57-28.28,0-59.63,7.58-93.88,26C677.64,235.15,585,153.9,493.55,153.9Z"/><polygon class="cls-3" points="542.5 839.71 465.37 839.71 540.29 687.65 455.08 687.65 377.58 884.88 448.1 884.88 395.95 1076.61 542.5 839.71"/><path class="cls-1" d="M499.43,708.14,430.05,849l-5.54,11.26h75.67L389.29,1039.46l38-139.84,2.68-9.85H360.73L432.1,708.14h67.33m12.56-7.8H426.77L349.28,897.57H419.8L367.64,1089.3,514.19,852.4H437.06L512,700.34Z"/></g></g></svg>