<svg xmlns="http://www.w3.org/2000/svg" viewBox="0 0 857 857"><defs><style>.cls-1{fill:#f8ad3a;}.cls-2{fill:#333;}</style></defs><g id="Warstwa_2" data-name="Warstwa 2"><g id="Слой_1" data-name="Слой 1"><circle class="cls-1" cx="428.5" cy="428.5" r="285.99"/><path class="cls-2" d="M428.5,209.86A217.94,217.94,0,1,1,343.4,227a217.23,217.23,0,0,1,85.1-17.18m0-7.81c-125.07,0-226.45,101.38-226.45,226.45S303.43,655,428.5,655,655,553.56,655,428.5,553.56,202.05,428.5,202.05Z"/><rect class="cls-2" x="424.59" width="7.81" height="99.56"/><rect class="cls-2" x="424.59" y="757.44" width="7.81" height="99.56"/><rect class="cls-2" x="235.24" y="50.74" width="7.81" height="99.56" transform="matrix(0.87, -0.5, 0.5, 0.87, -18.22, 133.04)"/><rect class="cls-2" x="613.95" y="706.7" width="7.81" height="99.56" transform="translate(-295.46 410.28) rotate(-30)"/><rect class="cls-2" x="96.61" y="189.36" width="7.81" height="99.56" transform="translate(-156.84 206.62) rotate(-60)"/><rect class="cls-2" x="752.57" y="568.08" width="7.81" height="99.56" transform="translate(-156.84 964.06) rotate(-60)"/><rect class="cls-2" y="424.59" width="99.56" height="7.81"/><rect class="cls-2" x="757.44" y="424.59" width="99.56" height="7.81"/><rect class="cls-2" x="50.74" y="613.95" width="99.56" height="7.81" transform="matrix(0.87, -0.5, 0.5, 0.87, -295.48, 133.05)"/><rect class="cls-2" x="706.7" y="235.24" width="99.56" height="7.81" transform="matrix(0.87, -0.5, 0.5, 0.87, -18.22, 410.3)"/><rect class="cls-2" x="189.36" y="752.57" width="99.56" height="7.81" transform="translate(-535.55 585.32) rotate(-60)"/><rect class="cls-2" x="568.08" y="96.61" width="99.56" height="7.81" transform="translate(221.86 585.33) rotate(-60)"/></g></g></svg>