<svg xmlns="http://www.w3.org/2000/svg" viewBox="0 0 1030.69 754.37"><defs><style>.cls-1{fill:#fffeff;}.cls-2{fill:#333;}</style></defs><g id="Warstwa_2" data-name="Warstwa 2"><g id="Слой_1" data-name="Слой 1"><path class="cls-1" d="M220.17,484.45c-61.72-1.7-131.27-14.71-175.7-57.59s-57-107.86-31.23-164c33.77-73.57,152-103.56,208.37-45.48C199.67,118.42,260.19,10.08,410.5.32,505-5.82,604.92,78,591.08,172.11c88.82-47.83,158.17-22.63,205,18.54,30.17,26.54,41.85,54,47.83,93.71C857.55,375.13,781,456,696.44,473.34c-34.6,7.08-73,5.54-108.18,7.22-47.21,2.26-94.51,4.14-141.79,3.95-2.56,0-5.11,0-7.66-.06C363.88,483.7,294.71,486.51,220.17,484.45Z"/><path class="cls-2" d="M493.55,62.47c47.62,0,97.44,23.42,130,61.13,26.46,30.62,38.18,66.86,33,102L654.3,241,668,233.64c30.92-16.65,61.25-25.09,90.17-25.09a147.39,147.39,0,0,1,58.58,12.16,179.52,179.52,0,0,1,47.36,30.47c26.78,23.55,39,47.67,45.27,89,6,40.12-6.46,81.28-35.2,115.89-27,32.58-65.71,56-106.09,64.28-24.4,5-51.24,5.59-77.18,6.16-9.85.22-20,.44-29.8.91-42.83,2.05-88.8,4-134.75,4H519.7l-7.61-.06c-8.89-.09-18-.13-27.78-.13-22.14,0-44.19.23-65.51.45-21,.22-42.73.45-64.23.45-22.4,0-42.34-.25-61-.76-34.53-.95-65.61-5.35-92.39-13-32.35-9.32-58.63-23.57-78.1-42.35A136.6,136.6,0,0,1,83.41,403,135.24,135.24,0,0,1,93.54,320.8c9.62-20.95,26.9-38.95,50-52.06A149.13,149.13,0,0,1,216,249.31c29.59,0,55.6,10,73.26,28.19l19.18,19.76-6-26.89a169.84,169.84,0,0,1-1-70.31,156.69,156.69,0,0,1,28.47-64c15.44-20.56,35.77-37.24,60.42-49.57,26.91-13.45,58.5-21.43,93.89-23.73,3.07-.2,6.21-.3,9.33-.3m0-7.81c-3.28,0-6.57.11-9.84.32-150.32,9.76-210.83,118.1-188.89,217.08C274.35,251,245.73,241.5,216,241.5c-52.23,0-108,29.18-129.51,76-25.76,56.12-13.2,121.11,31.23,164s114,55.89,175.69,57.59c20.74.57,41.05.77,61.2.77,43.27,0,85.72-.9,129.74-.9q13.74,0,27.71.13l7.65.06h6.68c45.06,0,90.13-1.8,135.12-4,35.22-1.68,73.57-.14,108.17-7.22,84.51-17.31,161.11-98.21,147.45-189-6-39.73-17.67-67.17-47.83-93.71-28.76-25.3-66-44.57-111.1-44.57-28.28,0-59.64,7.59-93.88,26C677.64,135.9,585,54.66,493.55,54.66Z"/><path class="cls-2" d="M380.63,512.9l0-7.81c3.55,0,355.42-1.07,357.71-1.09,16.41-.51,57.94-4,87.35-25.8C851.08,459.42,862,422,849.53,396.51c-11-22.53-35.22-38.92-60.22-40.77C766.06,354,740.44,363.54,724,380c-16.68,16.73-19.73,50.4-6,66.72,12,14.28,34.29,21.23,53.09,16.54,13.29-3.32,24.25-10.71,30.87-20.8,7.09-10.84,7.24-28.27.31-37.3s-21.2-11.92-31.1-6.23-14.64,19.41-10.33,30l-7.23,3c-5.81-14.25.33-32.06,13.67-39.72s31.82-3.95,41.19,8.26c10.12,13.19,7.89,34.32,0,46.33-7.7,11.74-20.31,20.3-35.51,24.09-21.54,5.38-47.18-2.65-61-19.09-8-9.58-11.74-24-10.16-39.43,1.52-14.94,7.59-28.73,16.67-37.82C736.72,356.2,764.08,346,789.88,348c27.68,2,54.47,20.18,66.67,45.12,14,28.66,2,70.52-26.23,91.4-31.19,23.06-74.61,26.8-91.84,27.33Z"/><path class="cls-2" d="M920.42,754.37c-24.64,0-48.55-8.14-66.08-23.82-18.53-16.59-27.85-43.44-22.67-65.3C835.57,648.78,847,634,863,624.72c17.18-10,35.83-13.51,52.51-9.94,19.16,4.09,35.07,18.43,39.6,35.68,5,19.13-5.43,40.77-22.82,47.26-9.29,3.47-20.29,2.1-29.44-3.65-8.41-5.29-13.7-13.41-14.5-22.28l7.78-.7c.58,6.42,4.55,12.39,10.88,16.37,7,4.4,15.63,5.53,22.55,2.95,13.81-5.15,22.05-22.54,18-38-3.8-14.47-17.33-26.54-33.68-30-14.79-3.15-31.46.07-47,9.07-14.15,8.21-24.22,21.18-27.63,35.57-4.55,19.2,3.79,42.92,20.28,57.68,27.18,24.33,71.23,28.87,107.12,11s56.52-48.95,56.21-85.21c-.4-46.72-34.66-79.8-83.31-80.42-35.64-.46-79-.06-110.64.23l-12.95.12h0l-627.65-1,0-7.8,627.6,1h0l12.92-.12c31.69-.29,75.08-.69,110.81-.23,53.15.68,90.58,36.94,91,88.17.33,39.36-21.73,73-60.55,92.27A112.08,112.08,0,0,1,920.42,754.37Z"/><path class="cls-2" d="M338.65,540.23v-7.81c4.91,0,491.73-.61,587.59-1,16.9-.07,48.23-3.78,68.15-27.92,9.51-11.51,12.41-28.53,7.4-43.34-4.86-14.34-16.66-26.32-31.57-32.06-18.45-7.11-39.74-3.44-53,9.12-13.81,13.11-16.92,35.86-6.93,50.71,5.05,7.5,13.93,12.8,23.76,14.16,9,1.27,17.78-1,23.94-6.2,8.11-6.86,11.68-18.19,8.67-27.57-3.07-9.59-13.56-16.27-22.88-14.58a17.87,17.87,0,0,0-11.73,8.52,15.76,15.76,0,0,0-1.91,12.78l-7.44,2.37a23.56,23.56,0,0,1,2.66-19.18,25.73,25.73,0,0,1,17-12.17c13.2-2.4,27.43,6.52,31.71,19.88,3.94,12.3-.61,27.07-11.07,35.92-7.85,6.63-18.8,9.53-30.06,8-12-1.67-22.89-8.23-29.16-17.54-12.23-18.18-8.7-44.85,8-60.73,15.37-14.6,39.95-18.92,61.16-10.75,17.05,6.56,30.56,20.34,36.15,36.85,5.86,17.31,2.42,37.26-8.77,50.81-16.27,19.72-42.6,30.64-74.14,30.76C830.39,539.62,343.56,540.23,338.65,540.23Z"/><rect class="cls-2" x="464.55" y="598.49" width="296.28" height="7.81" transform="translate(-5.85 6.01) rotate(-0.56)"/><rect class="cls-2" x="217.61" y="600.15" width="163.01" height="7.81" transform="translate(-5.59 2.8) rotate(-0.53)"/><rect class="cls-2" x="239.08" y="505.47" width="104.45" height="7.81" transform="translate(-7.37 4.29) rotate(-0.83)"/></g></g></svg>